HIERARCHY
ROOT Hips
{
	OFFSET 0.000000 0.000000 0.000000 
	CHANNELS 6 Xposition Yposition Zposition Yrotation Zrotation Xrotation 
	JOINT Lumbar
	{
		OFFSET 0.000000 0.000000 0.000000 
		CHANNELS 3 Zrotation Xrotation Yrotation
		JOINT Neck
		{
			OFFSET 0.000000 0.445665 0.000000 
			CHANNELS 3 Zrotation Xrotation Yrotation
			End Site
			{
				OFFSET 0.000000 0.227535 0.000000 
			}
		}
		JOINT RightShoulder
		{
			OFFSET 0.019635 0.377685 0.194865 
			CHANNELS 3 Zrotation Xrotation Yrotation
			JOINT RightElbow
			{
				OFFSET 0.000000 -0.243375 0.000000 
				CHANNELS 2 Zrotation Yrotation
				JOINT RightWrist
				{
					OFFSET 0.000000 -0.264825 0.000000 
					CHANNELS 2 Zrotation Xrotation
					End Site
					{
						OFFSET 0.006600 -0.176220 0.000990 
					}
				}
			}
		}
		JOINT LeftShoulder
		{
			OFFSET 0.019635 0.377685 -0.194865 
			CHANNELS 3 Zrotation Xrotation Yrotation
			JOINT LeftElbow
			{
				OFFSET 0.000000 -0.243375 0.000000 
				CHANNELS 2 Zrotation Yrotation
				JOINT LeftWrist
				{
					OFFSET 0.000000 -0.264825 0.000000 
					CHANNELS 2 Zrotation Xrotation
					End Site
					{
						OFFSET 0.006600 -0.176220 -0.000990 
					}
				}
			}
		}
	}
	JOINT RightHip
	{
		OFFSET 0.052140 -0.069960 0.075570 
		CHANNELS 3 Zrotation Xrotation Yrotation
		JOINT RightKnee
		{
			OFFSET 0.000000 -0.402270 0.000000 
			CHANNELS 1 Zrotation
			JOINT RightAnkle
			{
				OFFSET 0.000000 -0.404085 0.000000 
				CHANNELS 3 Zrotation Xrotation Yrotation
				End Site
				{
					OFFSET 0.204105 -0.089430 0.008415 
				}
			}
		}
	}
	JOINT LeftHip
	{
		OFFSET 0.052140 -0.069960 -0.075570 
		CHANNELS 3 Zrotation Xrotation Yrotation
		JOINT LeftKnee
		{
			OFFSET 0.000000 -0.402270 0.000000 
			CHANNELS 1 Zrotation
			JOINT LeftAnkle
			{
				OFFSET 0.000000 -0.404085 0.000000 
				CHANNELS 3 Zrotation Xrotation Yrotation
				End Site
				{
					OFFSET 0.204105 -0.089430 -0.008415 
				}
			}
		}
	}
}
MOTION
Frames: 14
Frame Time: 0.02
-0.68025 0.94903 -0.03792 268.31349 0 -4.57398 -29.20417 6.28038 3.61351 -19.63315 -2.28938 1.20259 51.77242 -20.36154 35.10373 34.54133 25.75287 45.97513 -11.44602 51.34237 20.85628 -47.16492 41.11772 -139.05847 -58.11494 11.16025 -2.86841 10.45516 -11.22768 -5.12394 2.20679 -2.35301 -2.44639 -12.28948 11.55176 23.66287 -0.25182 1.3135 3.59114 7.78302
-0.68042 0.94916 -0.03704 268.43025 0 -4.41865 -30.03636 6.18642 3.59234 -19.55387 -2.27663 1.2235 51.78266 -20.52261 35.19365 34.7096 25.56192 46.36749 -11.46673 51.10855 20.86099 -47.12005 41.20015 -139.02369 -58.17002 11.14773 -2.87499 10.30881 -11.33839 -5.22765 2.34123 -2.36065 -2.4639 -12.26799 11.50438 23.59984 -0.35922 1.25087 3.523 7.44577
-0.68055 0.94924 -0.03603 268.5483 0 -4.26428 -30.82831 6.11622 3.58116 -19.54201 -2.29143 1.21106 51.87979 -20.6165 35.25663 34.8036 25.47732 46.68707 -11.4637 50.98566 20.85482 -47.08829 41.22698 -138.9922 -58.1416 11.14009 -2.90133 10.16123 -11.46832 -5.31152 2.48431 -2.35381 -2.45814 -12.20353 11.49124 23.23534 -0.58491 1.21785 3.48766 7.32564
-0.68069 0.94935 -0.03506 268.66563 0 -4.10958 -31.63332 6.03689 3.56622 -19.49923 -2.2944 1.21297 51.93601 -20.73898 35.3278 34.9292 25.34582 47.02824 -11.47203 50.81562 20.85128 -47.04939 41.27672 -138.9567 -58.14906 11.12946 -2.91997 10.01397 -11.58653 -5.40412 2.62332 -2.35377 -2.4643 -12.1629 11.45894 23.01954 -0.74805 1.16958 3.43698 7.10471
-0.68085 0.94945 -0.03418 268.78385 0 -3.95448 -32.46292 5.95082 3.54667 -19.45703 -2.29472 1.2187 51.99956 -20.87003 35.41728 35.06444 25.20812 47.41886 -11.47809 50.63134 20.85796 -47.01553 41.33653 -138.93345 -58.16833 11.12243 -2.93256 9.86762 -11.71649 -5.49804 2.76226 -2.35289 -2.46569 -12.10587 11.4411 22.76652 -0.94331 1.12785 3.38624 6.8812
-0.68097 0.94955 -0.03308 268.90071 0 -3.80023 -33.22993 5.88442 3.53913 -19.42996 -2.30714 1.20834 52.06795 -20.96601 35.46114 35.16063 25.11047 47.68624 -11.4829 50.50404 20.83919 -46.97389 41.35945 -138.88349 -58.13778 11.1088 -2.96301 9.71887 -11.82655 -5.58434 2.90374 -2.35059 -2.47133 -12.07011 11.40192 22.51157 -1.10603 1.08117 3.34488 6.72136
-0.68099 0.94963 -0.03143 269.00946 0 -3.65058 -33.84388 5.86508 3.56834 -19.42697 -2.34434 1.16202 52.12852 -20.99474 35.39324 35.18045 25.07572 47.66144 -11.49365 50.49718 20.76977 -46.91141 41.32596 -138.77382 -58.03905 11.07713 -3.03423 9.56694 -11.88077 -5.65522 3.049 -2.34411 -2.49209 -12.12585 11.2913 22.3643 -1.10064 0.9993 3.31257 6.65612
-0.68097 0.94972 -0.02955 269.11739 0 -3.50137 -34.39392 5.86485 3.60859 -19.43707 -2.39303 1.10042 52.19069 -20.9878 35.27893 35.16079 25.0819 47.50879 -11.50334 50.54555 20.67183 -46.8394 41.25119 -138.6331 -57.88229 11.0383 -3.12366 9.41217 -11.9136 -5.71866 3.19665 -2.3373 -2.51829 -12.19873 11.15899 22.21709 -1.07069 0.91483 3.29062 6.65399
-0.68096 0.94981 -0.02775 269.22834 0 -3.35024 -34.9668 5.85682 3.6399 -19.44225 -2.43764 1.04573 52.25202 -20.98918 35.18068 35.15106 25.08263 47.39629 -11.51118 50.57505 20.57633 -46.77003 41.17554 -138.49847 -57.72266 11.00188 -3.20697 9.25658 -11.95412 -5.78535 3.34426 -2.33311 -2.54323 -12.25132 11.03917 22.04269 -1.08044 0.83983 3.26958 6.64266
-0.68097 0.94989 -0.02607 269.32843 0 -3.2061 -35.56546 5.84615 3.68747 -19.44599 -2.47848 0.99054 52.31724 -21.02305 35.10241 35.17409 25.02946 47.36094 -11.52796 50.58236 20.52601 -46.71066 41.18304 -138.40304 -57.69132 10.96943 -3.28104 9.10957 -12.00458 -5.85312 3.48843 -2.31818 -2.5619 -12.36198 10.9088 21.97197 -0.96124 0.72757 3.22496 6.55648
-0.68094 0.94998 -0.02408 269.45058 0 -3.04788 -36.09456 5.84487 3.70445 -19.45424 -2.52943 0.93256 52.37313 -20.97972 34.97226 35.11857 25.09953 47.13056 -11.52628 50.64726 20.3735 -46.62501 41.00547 -138.21202 -57.37034 10.92664 -3.37945 8.9444 -12.02811 -5.91558 3.63935 -2.32551 -2.59569 -12.3478 10.79557 21.68999 -1.11903 0.69607 3.23273 6.63839
-0.68081 0.95012 -0.02134 269.63629 0 -2.84775 -36.45722 5.86764 3.62773 -19.47727 -2.60637 0.87658 52.4067 -20.749 34.71192 34.87034 25.47026 46.43485 -11.47543 50.85968 19.95824 -46.49651 40.34982 -137.82227 -56.35099 10.85998 -3.53273 8.72672 -11.98737 -5.97689 3.81477 -2.3967 -2.66792 -12.05709 10.72725 20.8176 -1.91188 0.85316 3.37194 7.16544
-0.68063 0.95027 -0.0183 269.84343 0 -2.63426 -36.75011 5.89853 3.52111 -19.50287 -2.69284 0.81763 52.42983 -20.43918 34.40436 34.54075 25.96403 45.53955 -11.40756 51.12709 19.43895 -46.33784 39.50443 -137.32806 -55.02903 10.78273 -3.71194 8.4916 -11.91745 -6.02992 3.99501 -2.49018 -2.75711 -11.6264 10.67748 19.73461 -3.00859 1.09834 3.56534 7.85696
-0.68046 0.95041 -0.01538 270.03954 0 -2.42849 -37.06895 5.92382 3.43233 -19.5235 -2.77418 0.75595 52.45459 -20.15448 34.11288 34.24093 26.42612 44.70885 -11.34441 51.36766 18.95902 -46.17349 38.73239 -136.84199 -53.78536 10.70819 -3.8835 8.26627 -11.85993 -6.08057 4.16959 -2.57174 -2.83808 -11.21314 10.62502 18.75515 -4.05532 1.32561 3.74078 8.47716
